<svg xmlns="http://www.w3.org/2000/svg" width="175" height="35" viewBox="0 0 175 35" fill="none"><g clip-path="url(#clip0_981_1067)"><path d="M175.287 5.08607C175.224 1.9766 173.272 -0.158402 170.423 -0.40156C167.665 -0.637349 165.53 1.19555 164.951 4.25528C164.769 5.18186 164.8 6.1287 164.821 7.06265C164.83 7.47528 164.827 8.2766 164.827 8.2766C164.827 8.2766 164.199 8.15685 163.714 8.09054C161.157 7.75343 158.774 8.32633 156.62 9.85344C155.557 10.6032 154.724 11.585 153.708 12.8192C153.708 11.3603 153.733 10.2863 153.701 9.21607C153.65 7.34633 153.888 5.4637 153.421 3.6087C152.808 1.17896 150.919 -0.381302 148.489 -0.405249C146.003 -0.431039 144.079 1.14581 143.428 3.61791C142.957 5.41396 143.37 7.25239 143.093 9.17002C141.346 8.24896 139.589 7.80501 137.754 8.55107C137.054 8.83475 136.444 8.8237 135.746 8.57133C133.643 7.81238 131.689 8.16607 129.962 9.60475C129.643 9.87002 129.345 10.15 129.19 10.4595C126.552 7.72581 122.883 6.03107 118.829 6.03107C116.424 6.03107 114.16 6.62791 112.163 7.68159C112.202 6.54317 112.125 5.36422 111.551 4.27554C110.586 2.43528 108.598 1.36686 106.507 1.55844C104.064 1.78133 102.365 3.13159 101.76 5.50607C101.273 7.42922 100.939 9.39291 100.485 11.5998C99.8766 9.54581 99.3209 7.76265 98.8302 5.96291C98.0508 3.17028 95.9977 1.50686 93.3006 1.55291C90.6936 1.59343 88.7253 3.2808 87.9676 6.05317C87.5075 7.74238 86.9771 9.41317 86.4846 11.0913C85.8766 9.26212 85.541 7.47344 85.1117 5.70686C84.3648 2.61212 81.7416 1.04817 78.5627 1.73896C75.8294 2.33581 74.3013 4.90554 74.7993 7.96712C74.9725 9.04844 75.4398 10.0819 75.3947 11.3934C72.1995 8.52528 68.6779 7.3887 64.606 8.30791C60.4926 9.23633 57.9001 12.005 56.1086 15.8642C54.272 11.9037 51.6037 9.27501 47.5281 8.31712C43.4761 7.36107 39.9671 8.56028 36.5717 11.5021C36.8441 10.3048 36.9921 9.52554 37.2049 8.76107C37.6217 7.24318 37.6361 5.7566 36.9091 4.33265C35.915 2.39291 33.907 1.32633 31.7673 1.56212C29.2939 1.83291 27.5709 3.28634 27.008 5.6866C26.5805 7.51397 26.2449 9.36528 25.8444 11.3271C25.7091 11.1097 25.6459 11.0434 25.6225 10.9624C25.0903 9.16633 24.5653 7.37028 24.0457 5.57239C23.2356 2.77055 20.533 1.1237 17.7114 1.67265C15.0918 2.18107 13.7802 3.93475 13.1524 6.43449C12.7609 7.99107 12.2647 9.51817 11.8137 11.0563C11.1805 9.15159 10.8792 7.29476 10.383 5.49502C9.52247 2.38555 6.74953 0.935808 3.5436 1.79976C0.994373 2.48686 -0.504854 5.25554 0.159064 8.18449C1.70159 15.015 3.26396 21.8437 4.84618 28.6632C5.56422 31.7542 7.67144 33.4895 10.733 33.6148C13.6269 33.7308 16.0714 31.9661 16.9735 29.0703C17.5508 27.2355 18.0884 25.3879 18.7379 23.2271C19.3586 25.2995 19.916 27.0348 20.4013 28.7921C21.2276 31.7966 23.6415 33.6663 26.7104 33.6148C29.6745 33.5669 31.8864 31.7266 32.6243 28.6926C32.8913 27.5984 33.1619 26.5061 33.5029 25.1098C35.8717 31.3655 40.2359 34.265 46.3537 33.7953C50.6745 33.4637 54.8637 32.2903 56.6336 27.359C57.4671 28.5508 58.1923 29.8845 59.374 30.8553C63.666 34.3829 68.3892 34.5947 73.3578 32.7158C75.8565 31.7671 77.998 30.3874 78.7233 27.499C78.7233 27.499 78.8568 26.8653 78.9127 26.6203L79.499 28.6742C80.2604 31.7082 82.3928 33.5005 85.4129 33.6111C88.3266 33.7179 90.7369 31.9679 91.648 29.0574C92.2253 27.2245 92.763 25.3787 93.4124 23.2419C94.1197 25.5555 94.6771 27.5708 95.3537 29.5437C96.2575 32.1742 98.2854 33.3532 100.871 33.5926C103.391 33.8284 105.751 32.4469 106.822 30.2161C106.914 30.0245 107.01 29.8255 107.048 29.6155C109.698 33.3366 113.988 35.7534 118.833 35.7534C122.908 35.7534 126.59 34.0403 129.233 31.2845C129.269 31.3305 129.296 31.3766 129.334 31.4263C130.675 33.2021 132.427 33.8763 134.539 33.4821C137.233 32.9829 138.728 31.0026 138.793 27.8784C138.844 25.4616 138.813 23.0466 138.806 20.6316C138.797 20.0163 138.851 19.4784 139.508 19.1984C140.695 18.69 141.875 18.154 143.19 17.57C143.19 21.1769 143.156 24.5737 143.201 27.9705C143.235 30.1682 144.031 32.0655 146.044 33.0437C147.985 33.9887 149.957 33.8303 151.733 32.445C152.822 31.5958 153.378 30.0134 153.609 28.4605C153.739 28.6521 153.842 28.9782 154.177 29.4792C156.67 33.1155 161.893 35.094 166.463 33.0492C166.636 32.9719 166.983 32.8337 166.983 32.8337C166.983 32.8337 167.354 32.9829 167.582 33.0621C172.159 34.6445 175.311 32.3142 175.314 27.359C175.32 23.065 175.316 18.7711 175.314 14.4771C175.307 11.3474 175.354 8.21765 175.287 5.08607ZM34.7694 8.0537C33.2954 14.5821 31.8034 21.1105 30.297 27.6298C29.7575 29.96 28.5578 30.9934 26.5191 30.9916C24.697 30.9916 23.3799 29.9582 22.8008 28.0092C21.5578 23.824 20.3346 19.6295 19.0988 15.4405C19.0122 15.1458 18.9057 14.8603 18.7073 14.28C17.5725 18.1005 16.5189 21.6558 15.4689 25.2111C15.1622 26.2371 14.906 27.2798 14.5704 28.2929C13.9877 30.0503 12.5516 31.045 10.7673 30.9953C9.02092 30.9474 7.71654 29.9582 7.28355 28.1032C5.68149 21.2819 4.12994 14.4513 2.59283 7.61528C2.22659 5.98317 3.04205 4.57581 4.40778 4.22028C6.10365 3.78002 7.58123 4.58133 8.01602 6.41975C8.65288 9.10554 9.12015 11.83 9.65778 14.5379C10.1323 16.9179 11.0758 21.6816 11.0758 21.6816L11.1985 22.3005L11.3464 21.7092C11.9147 19.7713 12.4848 17.8334 13.0531 15.8955C13.9155 12.9426 14.7634 9.98791 15.6366 7.0387C16.2699 4.91291 17.1052 4.15028 18.7307 4.15581C20.3472 4.16133 21.233 4.99212 21.8302 7.04054C23.2591 11.9571 24.6771 16.8719 26.3423 21.8032C26.8944 19.0197 27.4663 16.2382 28.0165 13.4548C28.4622 11.1834 28.8699 8.90291 29.3696 6.64265C29.79 4.73238 31.0673 3.85001 32.8263 4.18712C34.0297 4.41738 34.7694 5.19291 34.8921 6.45844C34.939 6.98528 34.8885 7.53976 34.7694 8.0537ZM54.3531 20.7108C54.2629 21.9082 53.673 22.6616 52.4714 22.6929L42.1031 22.7076C41.1722 22.6855 41.0712 23.0982 41.3887 23.8976C42.206 25.9313 44.9934 27.0126 47.4632 26.2242C48.515 25.8871 49.4387 25.2848 50.4202 24.7929C51.8274 24.0782 52.8828 24.314 53.6189 25.4671C54.2954 26.5319 54.0681 27.6298 52.9568 28.6687C50.2271 31.2274 44.6722 32.0416 41.1885 30.3966C37.5008 28.6521 35.4207 25.025 35.5704 20.6205C35.7508 15.5492 38.872 11.5924 43.3931 10.7082C49.0075 9.61212 54.8006 14.9026 54.3531 20.7108ZM63.7021 24.0782C64.6204 26.0161 67.4312 27.0384 69.764 26.1819C70.7454 25.8208 71.6637 25.2829 72.6019 24.8021C73.9784 24.0948 74.9562 24.2495 75.7284 25.3234C76.5186 26.4232 76.3382 27.5155 75.1854 28.6245C71.6691 31.9882 64.8117 32.1742 61.216 28.9948C57.2686 25.504 56.6083 19.2021 59.7168 14.6282C62.0333 11.2148 66.0439 9.77791 69.883 10.9863C73.5599 12.145 76.5926 16.2105 76.6197 20.0182C76.6305 21.9469 75.9684 22.6874 74.0614 22.7445L64.4761 22.7261C63.2529 22.6653 63.2872 23.2013 63.7021 24.0782ZM130.438 14.4734C130.664 14.8897 130.857 15.3208 131.041 15.7611C130.65 15.8329 130.123 16.0226 129.385 16.2897C129.28 16.3266 129.161 16.3026 128.925 16.3155C129.536 15.6984 129.793 14.9026 130.438 14.4734ZM109.942 11.3455C109.864 11.7066 109.536 11.7766 109.204 11.6624C109.397 11.4505 109.603 11.2461 109.807 11.0471C109.913 11.0711 109.985 11.1374 109.942 11.3455ZM104.807 28.3334C104.27 29.9748 103.045 30.94 101.403 30.9934C99.6709 31.0524 98.3052 30.1811 97.6846 28.584C97.4753 28.0461 97.3382 27.4805 97.1704 26.9261C95.9599 22.8274 94.7511 18.7305 93.4287 14.2505C93.1256 15.1642 92.9325 15.7095 92.7684 16.2621C91.6264 20.1563 90.4898 24.0524 89.3514 27.9447C88.8552 29.6358 87.8305 30.765 86.0624 30.9769C83.9245 31.2384 82.4235 30.0853 81.8895 27.7974C80.9856 23.929 80.1178 20.0532 79.2302 16.1829C78.5843 13.3553 77.9042 10.535 77.2998 7.70002C76.8145 5.43054 78.2542 3.83528 80.4372 4.17238C81.8552 4.38975 82.5227 5.39554 82.7897 6.72001C83.4086 9.77975 85.9055 22.2674 85.9055 22.2674C85.9055 22.2674 89.0717 11.2129 90.4194 6.63712C90.9227 4.92949 91.9168 4.13739 93.4178 4.15212C94.9315 4.16686 95.9057 4.97002 96.4001 6.66291C97.2895 9.6987 98.1609 12.7419 99.0467 15.7813C99.6367 17.8003 100.241 19.8137 100.836 21.8308C102.016 16.8682 102.989 11.9627 103.95 7.05528C104.069 6.43081 104.25 5.84133 104.598 5.31633C105.294 4.27002 106.61 3.82423 107.862 4.27923C109.015 4.69923 109.592 5.55212 109.577 6.83976C109.572 7.7516 109.256 8.58975 109.107 9.46475C109.081 9.6066 109.043 9.75949 109.009 9.91238C106.09 12.6313 104.264 16.5421 104.264 20.8895C104.264 22.8863 104.652 24.7892 105.354 26.53L104.807 28.3334ZM119.428 34.3608C120.534 33.1119 120.842 31.2587 122.354 30.2971C122.591 30.1442 122.603 29.564 122.646 29.1716C122.695 28.7295 122.668 28.2911 122.928 27.8913C123.543 26.9482 123.116 26.5411 122.165 26.3587C121.311 26.1947 120.205 26.2979 119.695 25.6348C118.578 24.1832 117.027 24.2992 115.596 23.9732C114.721 23.7576 113.667 23.8866 113.592 24.7026C113.505 25.6642 112.993 26.5116 113.085 27.5026C113.175 28.4237 113.792 29.0887 114.378 29.4276C116.341 30.5569 115.856 32.3124 115.769 34.0034V34.0053C110.146 32.6384 105.901 27.5966 105.63 21.5103C106.218 21.4126 106.39 22.2508 106.777 22.4995C107.151 22.739 107.425 23.2658 107.914 23.3045C109.579 23.4334 111.138 23.8737 112.43 24.8776C112.08 23.7945 111.051 23.2732 110.501 22.3153C110.072 22.6284 109.738 23.3192 109.07 22.8734C108.506 22.4903 108.396 21.8529 108.462 21.2026C108.535 20.4621 109.079 20.3276 109.677 20.2245C110.249 20.1213 110.811 19.95 111.475 19.7805C110.299 18.4211 109.579 16.975 109.834 15.2084C109.927 14.5471 109.577 14.3648 109.058 14.2321C108.686 14.1382 108.244 14.024 108.206 13.5266C108.172 13.055 108.522 12.7216 108.894 12.6479C110.29 12.3734 110.689 10.4263 112.401 10.7284C112.372 10.6124 112.347 10.4982 112.312 10.384C111.726 10.384 111.147 10.384 110.555 10.384C111.468 9.63239 112.478 9.00238 113.572 8.51975C113.384 8.67633 113.202 8.83291 112.919 9.07422C114.876 8.65054 116.272 9.12765 117.647 10.1058C118.502 10.7174 119.516 11.7563 120.718 10.4632C121.283 9.85712 122.125 9.79265 122.877 9.58265C123.478 9.41502 123.673 8.91581 123.888 8.43686C125.504 9.12397 126.955 10.1261 128.172 11.3713C128.019 11.4045 127.763 11.6034 127.853 11.6661C128.396 12.0382 128.23 13.1305 129.181 13.0513C129.246 12.9169 129.286 12.7971 129.296 12.6903C129.367 12.7787 129.428 12.869 129.493 12.9592C129.392 13.0053 129.282 13.0476 129.161 13.0826L129.199 13.0476C129.19 13.0495 129.183 13.0476 129.174 13.0476C129.17 13.0569 129.167 13.0697 129.159 13.079C129.031 13.1969 128.82 13.3479 128.836 13.3976C129.199 14.2616 128.928 14.5987 128.023 14.7111C127.523 14.7737 127.574 15.5271 127.749 15.715C128.771 16.8387 127.767 17.5645 127.272 18.3124C126.643 19.2703 126.349 21.199 126.866 22.0316C127.584 23.1811 128.799 23.5697 130.282 23.1221C130.803 22.9619 131.317 22.8163 131.862 23.0042C130.908 29.2434 125.737 34.0716 119.428 34.3608ZM141.097 15.6321C140.045 16.0724 139.008 16.5513 137.994 17.0726C136.847 17.6621 136.221 18.5832 136.28 19.9758C136.347 21.5379 136.336 23.1074 136.305 24.6695C136.271 26.0971 136.448 27.5395 136.112 28.9469C135.836 30.1 135.104 30.8276 133.94 30.9787C132.735 31.1334 131.808 30.66 131.207 29.5511C131.12 29.3853 131.086 29.1937 131.018 29.0132C132.515 26.6755 133.386 23.8903 133.386 20.8932C133.386 17.9311 132.531 15.1753 131.074 12.8579C131.295 11.6919 131.878 11.0895 132.921 10.8703C134.534 10.5332 135.577 11.0269 136.394 12.5669C137.413 11.4248 138.573 10.6179 140.175 10.8353C141.402 11.0029 142.171 11.6734 142.418 12.9205C142.66 14.1621 142.333 15.109 141.097 15.6321ZM151.088 27.8876C151.081 29.8642 150.031 31.0174 148.402 30.9934C146.762 30.9695 145.797 29.8237 145.79 27.8379C145.779 24.0837 145.786 20.3295 145.786 16.5771C145.783 16.5771 145.779 16.5771 145.779 16.5771C145.777 12.8653 145.77 9.15528 145.779 5.44712C145.781 3.31397 146.686 2.24002 148.449 2.24739C150.121 2.25476 151.096 3.34896 151.099 5.36422C151.112 12.869 151.112 20.3774 151.088 27.8876ZM172.724 27.8269C172.729 29.2011 172.319 30.2934 170.999 30.8387C169.824 31.3269 168.776 30.9474 167.719 29.6413C167.598 29.4884 167.409 29.225 167.409 29.225C167.409 29.225 167.208 29.3521 167.028 29.4663C162.186 32.5205 157.033 30.695 154.958 25.5869C153.217 21.304 153.78 17.1371 156.568 13.4603C158.888 10.4042 162.965 9.69502 166.285 11.539C166.582 11.7048 166.873 11.8871 167.374 12.1837C167.374 9.74291 167.349 7.55265 167.378 5.36238C167.403 3.55528 168.276 2.39291 169.648 2.24555C171.529 2.04107 172.7 3.15923 172.718 5.15423C172.751 8.68554 172.729 12.2187 172.729 15.7519C172.722 19.7787 172.709 23.8037 172.724 27.8269Z" fill="#E5E5E5"></path><path d="M70.3602 19.0976C70.9881 19.1142 71.2388 18.906 71.0927 18.2318C70.6868 16.3787 69.1442 15.1702 67.1453 15.1942C65.3032 15.2126 63.6759 16.5279 63.3187 18.2521C63.205 18.8103 63.3259 19.1068 63.9447 19.0958L70.3602 19.0976Z" fill="#E5E5E5"></path><path d="M44.7747 15.1937C43.0283 15.2526 41.5868 16.4923 41.0907 18.2589C40.885 18.9902 41.1647 19.11 41.7672 19.0989L47.9157 19.1045C49.1046 19.1616 48.9837 18.5666 48.7294 17.8389C48.1142 16.0834 46.6961 15.1273 44.7747 15.1937Z" fill="#E5E5E5"></path><path d="M163.621 15.6801C161.941 15.599 160.891 16.4556 160.146 17.8298C159.652 18.738 159.414 19.7383 159.446 20.6556C159.405 22.1164 159.679 23.3672 160.401 24.478C161.99 26.9059 165.151 26.8027 166.529 24.2367C167.599 22.2472 167.722 20.1306 166.812 18.0546C166.224 16.6896 165.241 15.7575 163.621 15.6801ZM163.385 23.6361C162.542 23.6361 161.864 22.4314 161.864 20.9448C161.864 19.4564 162.542 18.2498 163.385 18.2498C164.225 18.2498 164.909 19.4564 164.909 20.9448C164.907 22.4314 164.223 23.6361 163.385 23.6361Z" fill="#E5E5E5"></path></g><defs><clipPath id="clip0_981_1067"><rect width="175" height="35" fill="white"></rect></clipPath></defs></svg>