<svg xmlns="http://www.w3.org/2000/svg" width="149" height="35" viewBox="0 0 149 35" fill="none"><g clip-path="url(#clip0_981_1031)"><path d="M7.15551 23.5498C7.06957 23.5943 6.98591 23.6495 6.90454 23.7137H0.0106795V30.7361L4.36766 35.0844H19.0334L23.3052 30.859V17.7375L18.8785 13.5012H13.3463C13.3277 13.0994 13.4129 12.7446 13.4129 12.7446C14.0044 12.4563 14.6083 13.183 14.6083 13.183C14.8908 13.1593 15.2478 13.3615 15.2478 13.3615C15.6673 13.225 16.9262 13.5471 16.9834 13.4559C17.0315 12.7116 16.7248 12.2576 16.4734 12.0146H23.3067V4.88948L18.4389 -0.0419922H5.07682L0 4.95092V17.7957L4.40961 22.1624H8.42052C8.32847 22.3955 8.23312 22.5884 8.23312 22.5884L7.15551 23.5498ZM14.5579 10.8324C14.4132 10.7665 14.222 10.765 14.222 10.765L13.9573 10.4819C13.9573 9.89322 13.3102 10.0534 13.3102 10.0534L13.3644 9.73308C13.5416 9.73308 14.0334 9.80258 14.5597 9.87485V10.8322H14.5579V10.8324ZM14.0601 24.456L14.951 24.4912V26.6194H12.8329L12.8314 26.2591L12.8545 24.3271C12.8909 23.861 13.2415 24.1385 13.2415 24.1385C13.5385 24.4346 14.0601 24.456 14.0601 24.456ZM14.5579 8.74704C14.5325 8.73798 14.5068 8.72488 14.4814 8.71405H14.5579V8.74704ZM4.6471 21.5935L0.582286 17.5685V5.20977L5.30694 0.551749H18.1872L22.7773 5.21279V11.443H15.7594C15.709 11.3627 15.6757 11.2998 15.6757 11.2998C15.5519 11.0767 15.3342 10.9938 15.1377 10.9656V9.9529C15.6927 10.0249 16.1718 10.0755 16.2285 10.0189C16.4886 9.75977 15.8181 9.34354 15.1377 9.01218V8.14902H13.2385C12.7663 7.83452 12.6928 7.56333 12.6928 7.56333C12.5311 6.54758 13.6636 6.96229 13.6636 6.96229C14.2627 7.00761 14.3865 6.6702 14.3865 6.6702C14.1552 6.00697 13.3097 5.79394 13.1749 5.73704C13.0147 5.67107 12.9893 5.61114 13.0511 5.48952C13.0936 5.40592 13.549 5.60988 13.6967 5.46585C14.0341 5.12995 12.8591 4.38715 12.8591 4.38715C13.624 4.3451 12.78 3.57082 12.78 3.57082C12.2715 3.17222 12.4487 2.82171 12.4487 2.82171C12.986 2.87535 12.9845 2.31812 12.9008 2.29722C12.1095 2.11794 12.2443 1.812 12.2443 1.812C12.2443 1.5451 12.1126 1.26862 12.1126 1.26862C12.2201 0.788692 12.0012 0.884628 12.0012 0.884628C11.6783 0.884628 11.8649 1.17067 11.8649 1.17067C11.7482 1.65362 11.412 1.98776 11.412 1.98776C10.682 1.97391 11.0629 2.6525 11.0629 2.6525L11.5166 2.61197L11.4105 3.0511C10.3576 3.50661 10.6457 4.25696 11.2458 4.32596C11.2992 4.46092 11.214 4.58204 11.214 4.58204C10.5892 4.60873 10.7138 4.84592 10.1859 5.10049C9.77707 5.30117 9.78648 5.50815 9.81826 5.6547C9.87853 5.94679 10.2734 5.66855 10.2734 5.66855L9.88488 6.19128C8.58504 6.76387 9.73155 7.13805 9.73155 7.13805C10.7542 6.53247 11.1537 6.76387 11.1537 6.76387C11.3154 7.40017 10.9948 7.85089 10.621 8.14599H8.61046C8.61046 8.32779 8.61046 8.64355 8.61046 9.04063C7.98088 9.47222 7.75127 10.0501 7.75127 10.0501C7.32003 10.4787 7.53514 10.6912 7.53514 10.6912C7.74949 10.7977 8.20388 10.6252 8.60894 10.4265C8.60894 10.8259 8.60894 11.2421 8.60894 11.644C8.57563 11.6593 8.55325 11.6707 8.55325 11.6707C8.28372 12.2042 7.25824 12.6328 7.25824 12.6328C6.01815 13.1646 6.61111 13.8623 6.61111 13.8623C6.80919 13.8953 7.83976 13.6843 8.60919 13.5196C8.60919 13.7649 8.60919 13.9628 8.60919 14.093C8.85304 14.093 9.53195 14.093 10.4247 14.093C10.1964 14.477 9.79538 14.8763 9.79538 14.8763C9.63188 15.4099 8.98628 15.6254 8.98628 15.6254C7.25976 16.0517 7.36605 16.6389 7.36605 16.6389L8.66106 16.5324C9.03891 16.2126 9.30972 16.5324 9.30972 16.5324L9.74096 16.6389C9.95862 16.9594 9.63798 17.9085 9.63798 17.9085H8.77549C8.72133 18.2305 8.12836 18.2275 8.12836 18.2275C7.85883 18.1233 7.53387 18.4436 7.53387 18.4436C7.42631 18.6568 6.9409 18.8714 6.9409 18.8714C6.50966 18.9756 6.83335 19.1904 6.83335 19.1904C7.21196 18.9235 7.21196 19.5094 7.21196 19.5094C7.1044 19.7776 6.2264 19.7655 6.24038 19.9908C6.26759 20.3894 9.20852 19.1874 9.20852 19.1874C9.58535 18.8716 9.85488 19.031 9.85488 19.031C10.1249 19.4573 9.31607 19.9908 9.31607 19.9908C8.99264 20.3648 8.46604 20.5705 8.46604 20.5705C7.22035 20.7699 7.08025 21.4843 7.06779 21.59C5.65682 21.5935 4.6471 21.5935 4.6471 21.5935ZM9.37049 10.0007C9.96498 9.41179 10.3962 10.0007 10.3962 10.0007C11.422 10.3754 10.7214 10.7473 10.7214 10.7473C10.5867 10.7473 9.79411 11.1009 9.20572 11.3693V10.1027C9.30844 10.0428 9.37049 10.0007 9.37049 10.0007ZM9.20546 8.74427V8.7143H9.29217C9.26191 8.72362 9.23394 8.73495 9.20546 8.74427ZM9.47169 13.327C10.4433 12.9551 10.4974 13.4902 10.4974 13.4902C10.5005 13.4934 10.5023 13.495 10.5053 13.4995H9.20546V13.3897C9.37049 13.3522 9.47169 13.327 9.47169 13.327ZM11.2857 24.4192C11.4614 24.7778 11.4947 25.756 11.4947 25.756V25.9555L11.4754 26.6225H9.53068V24.8715C9.95888 24.5633 10.2467 23.9836 10.2467 23.9836C10.7957 23.757 11.109 24.0604 11.2857 24.4192ZM7.13619 21.5935L8.45841 21.3251C8.56444 21.3392 8.59139 21.445 8.57919 21.5935C8.0714 21.5935 7.58523 21.5935 7.13619 21.5935ZM8.45053 25.3129C8.61224 25.0417 8.88177 25.0462 8.88177 25.0462C8.9011 25.0492 8.91813 25.0477 8.93593 25.0507C8.93593 25.75 8.93593 26.7557 8.93593 27.2172C9.3176 27.2172 10.355 27.2172 11.5023 27.2172L11.4565 28.2277C11.4441 28.6817 11.4141 29.6503 11.3767 29.9263C11.2676 30.7467 11.0787 30.8618 10.9617 30.937C10.797 31.0398 10.5546 31.0826 10.1992 31.2329C9.32497 31.5978 9.40024 32.51 8.9784 32.7754C8.46273 33.1005 8.60436 32.9962 8.14616 33.0972C7.68618 33.1984 7.43852 33.7028 7.43852 33.7028H16.8072C16.7709 33.416 16.8342 33.1569 15.7367 32.7966C14.6667 32.4453 15.2071 32.2555 13.8284 31.561C13.3321 31.3125 13.0704 30.4294 12.9341 29.7684C12.8312 29.2656 12.8922 29.0357 12.8922 29.0357L12.8388 27.5131L12.8373 27.2172C14.0356 27.2172 15.1344 27.2172 15.529 27.2172C15.529 26.7924 15.5305 25.6687 15.5305 24.5217C16.1715 24.6307 17.243 25.471 17.243 25.471C18.3763 26.1136 18.1612 25.4156 18.1612 25.4156C17.8375 23.122 16.4881 22.9074 16.4881 22.9074C15.6798 22.6924 16.2186 22.211 16.2186 22.211C17.1909 21.4644 16.0429 21.2589 16.0429 21.2589C15.2882 21.3616 14.4875 20.8573 14.4875 20.8573C13.1381 19.8408 13.6313 19.1891 13.6313 19.1891C13.7389 18.4944 15.3424 19.5248 15.3424 19.5248C15.7736 19.8989 16.2049 19.5754 16.2049 19.5754C16.2582 19.3624 16.7615 18.9743 16.7615 18.9743C17.6789 18.2796 15.4654 18.1217 15.4654 18.1217C14.4125 17.4701 13.7661 17.2493 13.4534 16.4322C13.3651 16.2028 13.3605 16.0502 13.3605 16.0502C13.3605 16.0502 15.0187 16.2028 15.111 16.2234C15.2038 16.2433 15.8016 16.3093 15.7861 16.1023C15.7754 15.9505 15.4835 15.5028 14.8061 15.2009C14.2131 14.9385 13.7059 14.4228 13.5017 14.0892C16.0495 14.0892 18.6212 14.0892 18.6212 14.0892L22.7786 18.0402V30.5561L18.7166 34.5808H4.66897L0.59144 30.4969V24.3087H6.34489C5.68225 25.2119 5.28584 26.4767 5.28584 26.4767C5.23168 27.1178 6.13587 26.5842 6.13587 26.5842C6.13587 26.5842 6.2264 26.423 6.25589 26.3694C6.57653 25.8341 7.44513 25.782 7.44513 25.782C7.8746 25.8849 8.45053 25.3129 8.45053 25.3129Z" fill="#E5E5E5"></path><path d="M12.4944 1.77788C12.5277 1.80608 12.6391 1.89119 12.9768 1.96647C13.1642 2.00852 13.2857 2.18126 13.2888 2.38572C13.2888 2.41568 13.2857 2.44867 13.2827 2.48014C13.2478 2.68712 13.0892 3.00464 12.8151 3.0827C12.8329 3.09503 12.9575 3.19097 12.9575 3.19097C13.4258 3.55205 13.8075 4.23191 13.4157 4.36083C13.9468 4.72039 14.1233 5.0923 14.1294 5.23708C14.1449 5.56367 13.9499 5.64022 13.9151 5.68781C14.2248 5.83662 14.5655 6.13173 14.7148 6.5618L14.7542 6.67838L14.7122 6.79244C14.6349 7.00798 14.3199 7.36151 13.6361 7.3109L13.5952 7.30486L13.555 7.29403C13.3491 7.22982 13.1385 7.20439 13.0541 7.27816C13.0325 7.29881 13.0055 7.33029 13.0055 7.39928C13.0055 7.42597 13.0358 7.46676 13.0388 7.49647C13.0495 7.51737 13.0752 7.5564 13.1179 7.60777H15.7291V8.92996C16.202 9.2014 16.5567 9.495 16.62 9.78104C16.6277 9.81554 16.6332 9.85155 16.6348 9.88755C16.6348 10.0255 16.5806 10.159 16.4746 10.2647C16.3584 10.3806 16.2315 10.4196 15.7291 10.3745V10.8484C15.7502 10.866 15.7685 10.8829 15.7896 10.9036H22.1919V5.49669L17.9473 1.17432H12.4459C12.4426 1.18968 12.4398 1.20352 12.438 1.21485C12.4962 1.30248 12.5804 1.76705 12.4944 1.77788Z" fill="#E5E5E5"></path><path d="M9.04721 19.7718L9.079 19.7366L9.11688 19.7089C9.21046 19.6477 9.29259 19.5757 9.36607 19.5037C9.35132 19.5097 9.33734 19.5145 9.33734 19.5145C6.56728 20.6415 6.21817 20.4235 6.08671 20.3424C5.96821 20.2734 5.89854 20.1538 5.88863 20.0204C5.88863 20.0098 5.8871 20.0005 5.8871 19.9914C5.88405 19.6172 6.30284 19.5085 6.58305 19.438C6.46913 19.3476 6.36946 19.2065 6.36615 19.0394C6.36463 19.0132 6.36768 18.9857 6.37073 18.958C6.39489 18.8231 6.49456 18.6453 6.80986 18.5534C6.98633 18.4738 7.17144 18.3741 7.20932 18.3159C7.21415 18.3084 7.25738 18.2454 7.25738 18.2454L7.29222 18.2099C7.34104 18.1611 7.7583 17.724 8.1687 17.8911C8.2849 17.8911 8.38152 17.8556 8.4334 17.8206C8.44357 17.7685 8.47662 17.5661 8.47662 17.5661H9.37395C9.43422 17.3344 9.46931 17.1038 9.46753 16.9572C9.46753 16.9466 9.46448 16.9434 9.46295 16.9305C9.3437 16.9006 9.22291 16.8729 9.22291 16.8729L9.11688 16.8361L9.04721 16.7656C9.02331 16.7424 8.99305 16.7095 8.88702 16.7986L8.80184 16.8714L7.07939 17.0139L7.02294 16.7057C6.98505 16.4939 7.00514 15.7687 8.87456 15.3011C9.01085 15.252 9.3709 15.0713 9.45914 14.7799L9.47846 14.714H8.02452V13.9993C7.35578 14.1343 6.74477 14.2348 6.55508 14.2048L6.4282 14.1827L6.3453 14.0852C6.31809 14.0545 6.12307 13.8168 6.12002 13.4766C6.12002 13.4076 6.12688 13.3333 6.1457 13.2565C6.23622 12.8718 6.56449 12.5583 7.12414 12.3161C7.3774 12.2096 7.76898 11.9978 8.02452 11.775V11.0259C7.77762 11.084 7.55081 11.0888 7.37892 11.0037L7.3301 10.9785L7.28891 10.9395C7.27747 10.9335 7.13508 10.7877 7.13177 10.5424C7.13024 10.3669 7.20754 10.139 7.45215 9.87539C7.51038 9.751 7.68354 9.41687 8.02427 9.08047V7.60769H10.6812C10.7831 7.46341 10.8482 7.29395 10.8444 7.09931C10.8444 7.09327 10.8444 7.08622 10.8429 7.07841C10.6794 7.09301 10.3844 7.1605 9.90767 7.44251L9.78232 7.51855L9.63992 7.48179C9.47337 7.43974 8.9216 7.26097 8.88524 6.81503C8.88371 6.80269 8.88219 6.7896 8.88219 6.77751C8.87914 6.41794 9.22266 6.12586 9.54483 5.96722C9.54483 5.96722 9.54177 5.96571 9.54177 5.96395C9.49067 5.90427 9.41337 5.655 9.42252 5.61521C9.43727 5.18187 9.96666 4.85226 10.4373 4.49596C10.4584 4.47607 10.4798 4.45215 10.5009 4.43151C10.4388 4.39097 10.3832 4.34186 10.3438 4.2696C10.3059 4.2006 10.2873 4.13312 10.2873 4.06262C10.2832 3.7942 10.257 3.40165 10.867 2.99172C10.8383 2.95269 10.7717 2.85827 10.7717 2.85827C10.7369 2.80841 10.6021 2.48183 10.6006 2.24564C10.599 2.15827 10.6184 2.06863 10.6641 1.97899C10.7384 1.83647 10.8004 1.66978 11.1874 1.65996C11.1844 1.65996 11.2858 1.65996 11.2858 1.65996C11.2965 1.65845 11.4267 1.38222 11.5203 1.20294C11.5172 1.19363 11.5172 1.18456 11.5142 1.17676H5.54485L1.17236 5.49913V17.3697L4.89289 21.0573H6.79104C6.94284 20.7735 7.33621 20.3427 8.35101 20.174C8.36347 20.1707 8.80489 20.0556 9.04721 19.7718Z" fill="#E5E5E5"></path><path d="M6.55734 26.5521L6.39562 26.8372L6.31425 26.8847C6.10066 27.0119 5.56262 27.2818 5.19799 27.0565C5.09806 26.992 4.93863 26.8465 4.93304 26.5446C4.93304 26.5154 4.93456 26.4862 4.93685 26.4542L4.9399 26.4187L4.95084 26.3819C4.99025 26.2532 5.20155 25.6154 5.55474 24.9346H1.1792V30.2996L4.90685 34.0484H6.88561L7.12335 33.5594C7.15666 33.495 7.46077 32.9032 8.0662 32.7713L8.3342 32.7207C8.45956 32.7008 8.45956 32.7008 8.78783 32.4938C8.88775 32.4326 8.99226 32.2624 9.07821 32.0539C9.24781 31.6445 9.42351 31.1905 10.0582 30.9241C10.2563 30.8413 10.316 30.8042 10.4823 30.7614C10.5891 30.734 10.7284 30.6773 10.7694 30.6542C10.8159 30.6252 10.9375 30.5499 11.0264 29.8907C11.0488 29.7187 11.0821 29.3126 11.0915 28.8173C11.0915 28.8173 11.1022 28.2256 11.1022 28.2193C11.1022 28.2193 11.1037 28.1873 11.1037 28.1855C11.1007 28.1888 11.0704 28.2286 11.0704 28.2286L11.0819 27.8454H8.35175V25.8473C8.11247 26.0145 7.78446 26.1772 7.4562 26.1372C7.25786 26.1457 6.73609 26.2485 6.55734 26.5521Z" fill="#E5E5E5"></path><path d="M17.1458 33.6004L17.1985 34.0481H18.4757L22.1924 30.3592V18.3232L18.373 14.7188H14.6237C14.7267 14.7847 14.8312 14.8474 14.9459 14.8973C15.6827 15.2223 16.1079 15.7529 16.131 16.088C16.131 16.0956 16.131 16.1034 16.131 16.1125C16.1325 16.2512 16.0644 16.4222 15.8615 16.5163C15.7222 16.5823 15.205 16.6652 14.9433 16.5539C14.704 16.5287 14.2921 16.4879 13.8464 16.4489C14.0671 16.8898 14.4348 17.1204 15.0656 17.4893C15.0656 17.4893 15.462 17.7255 15.5749 17.7927C16.3027 17.8541 17.1603 18.0289 17.3073 18.5181C17.3198 18.5625 17.3297 18.6146 17.3297 18.6667C17.3327 18.8324 17.2547 19.0409 16.9729 19.2541C16.7776 19.4087 16.5689 19.6114 16.5356 19.685C16.5269 19.7094 16.5007 19.7922 16.5007 19.7922L16.4133 19.86C16.1895 20.0254 15.6459 20.2218 15.1452 19.8184C14.6977 19.5289 14.1668 19.3002 13.9623 19.299C13.9575 19.3204 13.9506 19.3448 13.9506 19.3448L13.9173 19.3939C13.8988 19.4261 13.8878 19.4707 13.8878 19.5256C13.8909 19.7341 14.0589 20.1022 14.6867 20.5804C14.7579 20.6202 15.4114 21.0054 15.9927 20.9238L16.0469 20.9148L16.1025 20.9253C16.2226 20.9467 16.8219 21.0772 16.9378 21.5417C17.0121 21.8467 16.8473 22.1627 16.4524 22.4721C16.4384 22.4877 16.4237 22.5029 16.413 22.5212C16.4433 22.5366 16.4934 22.555 16.5717 22.5781C16.797 22.6255 18.168 23.0122 18.5039 25.3671C18.552 25.5572 18.5326 25.8148 18.3282 25.9772C17.9938 26.2426 17.4797 26.0112 17.0711 25.778L17.0487 25.7657L17.0271 25.7473C16.7492 25.5282 16.4194 25.3104 16.1198 25.1402V27.8417H13.1985L13.2409 29.0471V29.0652C13.2409 29.07 13.1853 29.2571 13.2758 29.7063C13.4393 30.4944 13.6994 31.1169 13.988 31.2627C14.7422 31.6414 14.9789 31.8315 15.1671 32.0506C15.3181 32.2271 15.4071 32.3328 15.849 32.4756C16.8796 32.8155 17.0955 33.1237 17.1458 33.6004Z" fill="#E5E5E5"></path><path d="M13.9077 19.4057L13.9169 19.3937V19.3906L13.9077 19.4057Z" fill="#E5E5E5"></path><path d="M62.1173 21.5489C59.4898 22.5057 59.184 24.4851 59.184 25.6028C59.184 26.5534 59.5005 29.6553 63.6261 29.6553C65.5398 29.6553 66.7638 28.7903 67.4349 28.0989C67.7151 29.0557 68.5557 29.623 69.765 29.623C71.1615 29.623 71.9452 28.9286 72.7695 27.9456L72.9361 27.7325L72.4352 27.1667L72.1898 27.3752C72.066 27.4795 71.9149 27.5256 71.6919 27.5256C70.7994 27.5256 70.6275 26.7009 70.6275 25.6351C70.6275 25.2118 70.6438 24.5173 70.6624 23.7171C70.6893 22.5548 70.7211 21.1075 70.7211 19.8117C70.7211 18.3354 70.6723 16.9238 70.0328 15.9035C69.1751 14.6164 67.7947 14.0176 65.6728 14.0176C62.4051 14.0176 60.9148 16.0101 60.5408 17.1829L60.465 17.4151L61.2276 17.8676L61.3923 17.5594C61.3984 17.5438 62.2431 15.9902 64.3002 15.9902C65.6984 15.9902 66.7303 16.6587 67.0919 17.7235C67.2716 18.28 67.2716 18.4946 67.2716 19.3932V19.8716C65.4083 20.448 64.8286 20.5616 62.1173 21.5489ZM67.2749 26.8354C66.4597 27.4135 65.5276 27.5316 64.8759 27.5316C62.8986 27.5316 62.6037 26.1623 62.6037 25.3483C62.6037 24.3056 63.0621 23.418 63.933 22.9793C64.5608 22.6684 65.2484 22.3325 67.2752 21.7299V26.8354H67.2749Z" fill="#E5E5E5"></path><path d="M33.4114 28.9025C34.9551 29.3993 36.4568 29.6135 38.4325 29.6135C40.6419 29.6135 45.7808 29.0248 45.7808 23.5636C45.7808 20.339 43.9319 19.1158 41.9679 17.8185L39.6627 16.307C37.6537 14.9931 36.7355 14.3903 36.7355 12.6164C36.7355 11.3254 37.1286 9.60286 40.5071 9.60286C41.944 9.60286 43.3026 9.89041 43.9164 10.4983C44.3617 10.9437 44.5979 11.5203 44.6533 12.3205L44.6719 12.6164H45.4446L45.4207 12.145C45.395 11.5125 45.4067 10.8984 45.4067 10.1931C45.4067 9.30145 45.4283 8.47883 45.4283 8.47128L45.4385 8.20236L45.1636 8.15401C45.08 8.14343 43.0633 7.80225 40.4436 7.80225C34.0654 7.80225 33.5721 12.0448 33.5721 13.3418C33.5721 15.9965 34.8595 17.3283 37.3887 18.9841L39.2088 20.1877L39.4842 20.3748C41.2082 21.5245 42.4569 22.3587 42.4569 24.3552C42.4569 26.6917 41.1067 27.7774 38.2052 27.7774C36.8224 27.7774 35.3324 27.3448 34.685 26.6197C34.2629 26.149 34.0346 25.4805 33.9952 24.8012L33.9797 24.4854L33.0808 24.4836L33.1251 25.238C33.1568 25.7041 33.1886 26.2744 33.1886 27.7356V28.8289L33.4114 28.9025Z" fill="#E5E5E5"></path><path d="M57.6971 16.3212V14.4559H52.517V11.0659H51.8529L51.5106 11.6425C51.4928 11.6687 50.4811 13.5668 49.0177 14.6898C48.6043 15.0066 48.2475 15.2672 47.3131 15.6504L47.115 15.7307V16.3212H49.1255L49.1131 17.3722C49.0874 19.611 49.0658 21.5425 49.0658 23.9499C49.0658 24.8239 49.0658 26.2771 49.3066 27.0191C49.8817 28.8807 51.1884 29.7103 53.5412 29.7103C56.3065 29.7103 57.4794 28.1953 57.5336 28.1356L57.6653 27.9901L57.3991 27.3752L57.0848 27.5348C57.0787 27.5439 56.2719 27.9455 55.2222 27.9455C52.9607 27.9455 52.5173 26.5994 52.5173 24.2322V16.323H57.6973V16.3212H57.6971Z" fill="#E5E5E5"></path><path d="M85.9168 25.6245C85.8809 26.626 85.8517 27.7835 85.3594 28.274C85.0963 28.5331 84.6874 28.6972 84.0975 28.7892L83.8236 28.8229V29.5206L84.175 29.4884C85.5328 29.3597 86.5052 29.3597 87.6293 29.3597C88.6141 29.3597 89.5554 29.4118 90.6501 29.467L91.4043 29.5053V28.8015L91.1037 28.7798C90.6671 28.7524 90.1639 28.5746 89.9269 28.3568C89.4548 27.9215 89.3574 27.2222 89.3574 24.7352V20.338C89.3574 19.602 89.3063 18.2131 89.1593 17.6428C88.6497 15.3391 86.8599 14.0718 84.1147 14.0718C82.0183 14.0718 80.4733 14.9526 79.7051 15.5176V14.3248L79.4061 14.1501L79.2312 14.2274C79.0456 14.315 78.5253 14.623 77.6303 14.7625C76.4596 14.9886 75.3502 15.0482 74.8811 15.0482C74.7842 15.0482 74.7099 15.0483 74.6494 15.0407L74.3056 15.0153V15.8754L74.5919 15.9069C74.6298 15.9084 74.6731 15.9144 74.7173 15.9162C75.085 15.9414 75.7731 15.9882 76.0838 16.4329C76.3569 16.8345 76.3848 17.6304 76.3848 19.4824V23.7877C76.3848 26.3558 76.3571 27.6394 75.8857 28.1607C75.4356 28.6617 74.7916 28.7617 74.537 28.7831L74.2451 28.8045V29.5221L74.5859 29.4884C75.949 29.3627 76.9796 29.3627 78.0819 29.3627C79.0356 29.3627 79.952 29.4118 81.005 29.464L81.8164 29.5068V28.803L81.5173 28.7816C81.0762 28.7524 80.5806 28.5746 80.3408 28.3568C79.8714 27.9242 79.7695 27.2237 79.7695 24.7367V16.8252C80.409 16.4986 81.2603 16.1912 82.6184 16.1912C84.5941 16.1912 85.619 17.0981 85.8479 19.0453C85.9717 20.1968 85.9717 21.3651 85.9717 22.4907C85.9717 23.3566 85.9717 24.5406 85.9453 25.1031C85.9292 25.2871 85.9198 25.4589 85.9168 25.6245Z" fill="#E5E5E5"></path><path d="M99.5133 8.00014C99.9158 7.59827 100.569 7.45727 101.046 7.45727C102.193 7.45727 103.031 7.95633 103.61 9.23446L103.69 9.42306L104.054 9.41828L105.562 7.34094L105.518 7.02191L105.4 6.92824C104.578 6.26828 103.17 5.77979 101.687 5.77979C98.2358 5.77979 96.1828 7.3568 95.5804 10.4668C95.3976 11.4022 95.3574 13.1263 95.3541 14.4608C94.9641 14.7637 94.4314 15.0435 93.5704 15.3945L93.3723 15.4796V16.3228H95.3541V23.7904C95.3541 26.3585 95.3325 27.6281 94.8603 28.1496C94.4113 28.6524 93.7687 28.7521 93.5089 28.7675L93.2131 28.7937V29.5249L93.5645 29.4911C94.9257 29.3653 96.209 29.3653 97.3362 29.3653C98.2373 29.3653 99.482 29.405 101.157 29.4911L101.495 29.511V28.706H101.173C100.792 28.706 99.496 28.66 99.0749 28.0254C98.8069 27.6359 98.7418 26.67 98.7418 24.68V16.3243H102.133V14.4593H98.7423V11.547C98.7423 9.62198 98.8537 8.64852 99.5133 8.00014Z" fill="#E5E5E5"></path><path d="M110.709 29.7732C116.421 29.7732 118.448 25.4279 118.448 21.6992C118.448 16.9055 115.673 14.04 111.03 14.04C105.316 14.04 103.294 18.3876 103.294 22.115C103.294 26.9107 106.069 29.7732 110.709 29.7732ZM108.747 16.4656C109.277 16.0116 110.003 15.7825 110.9 15.7825C114.643 15.7825 114.832 20.8467 114.832 21.8619C114.832 24.4899 114.216 26.3389 112.996 27.3509C112.457 27.8049 111.73 28.0348 110.841 28.0348C107.092 28.0348 106.905 22.9691 106.905 21.9571C106.908 19.3288 107.525 17.4781 108.747 16.4656Z" fill="#E5E5E5"></path><path d="M127.108 16.6051C128.489 16.6051 129.203 17.2636 129.557 17.8158L129.653 17.9613H130.269L131.551 15.64V15.1653L131.448 15.0679C130.821 14.5129 129.96 14.2302 128.899 14.2302C127.269 14.2302 126.111 14.9523 125.382 15.6322V14.3243L125.114 14.1841L124.937 14.2629C124.68 14.384 124.047 14.5719 123.308 14.693C122.138 14.9206 121.031 14.979 120.559 14.979C120.463 14.979 120.365 14.9775 120.31 14.9712L119.983 14.9626V15.8749L120.28 15.9064C120.311 15.9079 120.355 15.9139 120.398 15.9157C120.768 15.9409 121.454 15.9877 121.765 16.4324C122.036 16.834 122.058 17.6299 122.058 19.4819V23.7872C122.058 26.3553 122.039 27.5926 121.567 28.1141C121.122 28.6172 120.472 28.7181 120.217 28.7353L119.918 28.7582V29.5216L120.271 29.4879C121.63 29.3623 122.909 29.3623 124.043 29.3623C124.938 29.3623 126.187 29.402 127.861 29.4879L128.198 29.5078V28.6723H127.881C127.495 28.6723 126.21 28.6232 125.78 27.9932C125.518 27.6037 125.451 26.6667 125.451 24.6783V17.0873C125.931 16.7607 126.476 16.6051 127.108 16.6051Z" fill="#E5E5E5"></path><path d="M148.378 28.1816C148.017 28.1524 147.355 28.0804 147.042 27.6297C146.772 27.2676 146.748 26.1302 146.748 24.2934V12.0159C146.748 10.0234 146.761 7.37173 146.862 6.12835L146.875 5.9813L146.615 5.82568L146.463 5.88385C146.153 5.9964 145.559 6.12835 144.958 6.22428C143.53 6.50403 141.773 6.64982 141.7 6.64982H141.379L141.312 7.32363L141.602 7.35108C141.635 7.35511 141.676 7.35788 141.722 7.35964C142.085 7.3881 142.752 7.43795 143.06 7.87784C143.33 8.27946 143.356 9.28313 143.356 11.1605V14.3604C142.701 14.2217 141.608 14.0744 140.384 14.0744C137.046 14.0744 134.399 15.6398 133.126 18.3736C132.586 19.5525 132.296 20.954 132.296 22.426C132.296 26.8723 134.996 29.7395 139.17 29.7395C141.171 29.7395 142.666 28.8778 143.422 28.3259V29.5985L143.829 29.7335L143.967 29.6723C144.237 29.5496 144.778 29.4436 145.519 29.324C146.807 29.1065 148.132 29.0158 148.473 29.0158H148.792V28.206L148.504 28.194C148.469 28.1877 148.426 28.1846 148.378 28.1816ZM143.354 26.9735C142.482 27.5101 141.477 27.5896 140.942 27.5896H140.802C136.387 27.5896 135.907 23.6936 135.907 22.0178C135.907 17.8873 137.354 15.8765 140.318 15.8765C142.184 15.8765 143.106 16.643 143.354 16.8877V26.9735Z" fill="#E5E5E5"></path></g><defs><clipPath id="clip0_981_1031"><rect width="148.75" height="35" fill="white"></rect></clipPath></defs></svg>