<svg xmlns="http://www.w3.org/2000/svg" width="140" height="35" viewBox="0 0 140 35" fill="none"><g clip-path="url(#clip0_981_1074)"><path d="M51.0217 18.8955C50.9657 16.7055 50.0086 14.7155 47.8653 13.6205C44.7624 12.0355 39.4297 12.038 36.7901 15.848C36.729 15.938 36.7595 16.0905 36.7417 16.213C36.645 16.1405 36.5508 16.0655 36.4541 15.9905C36.4541 15.1255 36.4541 14.263 36.4541 13.3305C34.4762 13.3305 32.6257 13.3305 30.793 13.3305C30.793 20.483 30.793 27.568 30.793 34.633C32.8039 34.633 34.7562 34.633 36.7672 34.633C36.7672 34.263 36.7672 33.9405 36.7672 33.623C36.7672 30.118 36.7137 26.6055 36.8002 23.1055C36.8359 21.8755 37.0599 20.5905 37.4951 19.443C38.1264 17.7955 39.9897 17.0555 42.0642 17.368C43.7341 17.618 44.7166 18.608 44.9991 20.4255C45.1188 21.178 45.185 21.9355 45.185 22.693C45.2053 26.3755 45.1977 30.053 45.1977 33.7405C45.1977 34.0455 45.1977 34.3555 45.1977 34.633C47.2799 34.633 49.2271 34.633 51.0675 34.633C51.0675 29.3405 51.1668 24.1155 51.0217 18.8955Z" fill="#E5E5E5"></path><path d="M69.0152 1.3623C69.0152 6.09481 69.0152 10.8298 69.0152 15.6973C68.5952 15.2573 68.328 14.9448 68.0276 14.6648C64.5861 11.4548 58.225 12.0898 55.3054 16.0798C52.2229 20.2873 52.1643 24.9448 54.0581 29.5898C55.8603 34.0323 60.1189 36.0548 64.8814 35.0523C66.7243 34.6573 68.1803 33.6948 69.3869 31.9273C69.3869 33.0223 69.3869 33.8223 69.3869 34.6423C71.324 34.6423 73.1745 34.6423 75.0887 34.6423C75.0887 23.5098 75.0887 12.4373 75.0887 1.3623C73.0676 1.3623 71.0414 1.3623 69.0152 1.3623ZM68.4883 27.9973C67.8418 29.7048 66.4825 30.6323 64.632 30.7873C62.7992 30.9398 61.3152 30.2648 60.2538 28.7673C58.533 26.3273 58.444 21.7473 60.0756 19.2423C61.1549 17.5923 62.7585 17.0098 64.6727 17.1598C66.4647 17.2998 67.8163 18.1898 68.445 19.8148C69.2189 22.3123 69.1196 23.8823 69.1196 23.8823C69.1196 23.8823 69.313 25.7998 68.4883 27.9973Z" fill="#E5E5E5"></path><path d="M22.1875 13.3008C22.1875 20.4883 22.1875 27.5683 22.1875 34.6383C24.1755 34.6383 26.0897 34.6383 28.0242 34.6383C28.0242 27.5033 28.0242 20.4258 28.0242 13.3008C26.0617 13.3008 24.1399 13.3008 22.1875 13.3008Z" fill="#E5E5E5"></path><path d="M21.6122 2.49756L21.5919 2.51756L21.5842 5.43256L23.982 6.82256L21.5715 8.43006L21.5664 11.2826C24.0126 9.73006 26.2857 8.29256 28.6402 6.79506L21.6122 2.49756Z" fill="#E5E5E5"></path><path d="M16.1331 13.2483C15.5171 13.2283 15.2422 13.4508 15.0055 13.9758C13.6385 17.0183 12.236 20.0458 10.836 23.0783C10.7113 23.3458 10.5687 23.6158 10.3625 24.0158C10.1767 23.6158 10.0596 23.3858 9.95782 23.1483C8.60109 20.0708 7.23164 16.9908 5.89527 13.9008C5.68909 13.4283 5.44473 13.2383 4.90764 13.2533C3.27345 13.2983 1.63673 13.2858 0 13.2983C0 13.3533 0 13.4133 0 13.4708C0.109455 13.6383 0.241818 13.8033 0.325818 13.9808C3.50255 20.5433 6.67164 27.1058 9.84582 33.6683C9.996 33.9683 10.1564 34.2633 10.3905 34.6983C13.9491 27.4833 17.4287 20.4358 20.9669 13.2658C19.264 13.2658 17.6935 13.2983 16.1331 13.2483Z" fill="#E5E5E5"></path><path d="M78.0767 1.58203L78.0614 1.59953L78.0512 4.51953L80.449 5.90953L78.0461 7.51453L78.041 10.367C80.4821 8.81703 82.7577 7.37703 85.1123 5.87953L78.0767 1.58203Z" fill="#E5E5E5"></path><path d="M138.728 30.2596C138.669 26.5421 138.72 22.8321 138.707 19.1221C138.697 16.0771 137.414 14.3296 134.477 13.3621C132.323 12.6546 130.091 12.5946 127.859 12.7096C125.593 12.8196 123.419 13.2871 121.564 14.6371C119.81 15.9146 118.955 17.6471 118.845 19.8296C120.859 19.8296 122.788 19.8296 124.443 19.8296C125.145 18.8371 125.545 17.7646 126.326 17.2696C127.915 16.2621 129.747 16.3796 131.453 17.1546C132.491 17.6146 132.677 18.6246 132.672 19.6146C132.664 20.5396 132.076 21.1171 131.196 21.3721C130.455 21.5846 129.699 21.7471 128.943 21.8846C126.723 22.2796 124.45 22.4696 122.299 23.0846C119.42 23.8946 118.16 25.9021 118.168 28.9096C118.173 31.8196 119.609 33.8946 122.337 34.7771C123.2 35.0546 124.142 35.1896 125.048 35.2346C127.92 35.3871 130.597 34.7996 132.845 32.7796C133.023 33.4721 133.173 34.0746 133.321 34.6346C135.396 34.6346 137.368 34.6346 139.153 34.6346C139 33.1396 138.758 31.6996 138.728 30.2596ZM132.522 27.7671C132.265 29.5146 131.259 30.7521 129.455 31.0821C128.421 31.2596 127.316 31.2496 126.283 31.1021C125.043 30.9296 124.374 30.1321 124.208 29.0021C124.023 27.8246 124.473 26.6471 125.56 26.1996C126.66 25.7371 127.874 25.5271 129.047 25.2571C129.661 25.1146 130.287 25.0996 130.893 24.9596C131.458 24.8346 132.01 24.6146 132.751 24.3746C132.68 25.5721 132.685 26.6796 132.522 27.7671Z" fill="#E5E5E5"></path><path d="M110.04 1.58203L110.027 1.59953L110.012 4.51953L112.412 5.90953L110.006 7.51453L110.004 10.367C112.445 8.81703 114.716 7.37703 117.073 5.87953L110.04 1.58203Z" fill="#E5E5E5"></path><path d="M102.692 26.4383C102.106 26.4258 101.893 26.5932 101.753 27.1782C101.208 29.4557 99.7136 30.6758 97.4431 30.8083C95.3711 30.9283 93.6936 29.8283 92.8791 27.7058C91.9093 25.1958 91.9653 22.6582 92.9529 20.1682C93.4951 18.8157 94.4165 17.7707 95.9107 17.3307C98.7158 16.5057 100.775 17.7007 101.763 20.7682C103.636 20.7682 105.533 20.7682 107.556 20.7682C107.515 18.9257 106.897 17.3782 105.767 16.0357C102.407 12.0632 94.7271 11.4208 90.3642 14.8058C86.9354 17.4608 85.9911 21.1507 86.2303 25.2182C86.4416 28.8207 87.9714 31.7482 91.1533 33.6982C93.4493 35.1032 95.9871 35.4033 98.6242 35.2183C103.57 34.8633 107.388 31.1957 107.686 26.4507C106.016 26.4507 104.346 26.4758 102.692 26.4383Z" fill="#E5E5E5"></path><path d="M78.041 13.3301C78.041 20.4776 78.041 27.5576 78.041 34.6476C80.0265 34.6476 81.9508 34.6476 83.9159 34.6476C83.9159 27.5201 83.9159 20.4326 83.9159 13.3301C81.9279 13.3301 79.9883 13.3301 78.041 13.3301Z" fill="#E5E5E5"></path><path d="M110.012 13.3008C110.012 20.4783 110.012 27.5633 110.012 34.6483C112.005 34.6483 113.929 34.6483 115.889 34.6483C115.889 27.5133 115.889 20.4308 115.889 13.3008C113.927 13.3008 112.002 13.3008 110.012 13.3008Z" fill="#E5E5E5"></path></g><defs><clipPath id="clip0_981_1074"><rect width="140" height="35" fill="white"></rect></clipPath></defs></svg>