<svg xmlns="http://www.w3.org/2000/svg" width="149" height="35" viewBox="0 0 149 35" fill="none"><path d="M71.5982 31.1855C71.4826 31.0621 71.3902 30.9158 71.3154 30.7512C71.2446 30.5882 71.2025 30.4084 71.1916 30.2179V27.0894H72.4849V26.0045H71.1916V24.6406H70.2261V26.0045H69.2959V27.0894H70.2261V30.2179C70.2383 30.5577 70.3022 30.8747 70.4246 31.1688C70.5511 31.4644 70.7143 31.7219 70.9183 31.9429C71.1209 32.1654 71.3589 32.3376 71.6268 32.464C71.8974 32.592 72.1816 32.656 72.489 32.6576V31.5817C72.3163 31.5817 72.1517 31.5497 71.9994 31.4766C71.8484 31.405 71.7152 31.3105 71.5982 31.1855Z" fill="#E5E5E5"></path><path d="M76.7805 26.7216C76.5779 26.4991 76.3399 26.3254 76.072 26.1974C75.8028 26.0724 75.5172 26.0054 75.2166 26.0054C74.7352 26.0054 74.3028 26.1608 73.9111 26.4656V23.5581H72.9429V32.6585H73.9111V28.4481C73.9234 28.2622 73.9628 28.087 74.0362 27.9209C74.1083 27.7563 74.2035 27.6146 74.3191 27.4896C74.4388 27.3708 74.5748 27.2687 74.7271 27.1986C74.8794 27.1269 75.0412 27.0934 75.2166 27.0934C75.3839 27.0934 75.5457 27.1254 75.698 27.1986C75.8476 27.2732 75.9823 27.3708 76.0992 27.4896C76.2134 27.6146 76.3073 27.7563 76.3834 27.9209C76.4555 28.0839 76.5004 28.2622 76.5167 28.4481V32.6585H77.485V28.4481C77.47 28.1113 77.3993 27.7974 77.2782 27.5003C77.1491 27.2016 76.9859 26.9456 76.7805 26.7216Z" fill="#E5E5E5"></path><path d="M82.7681 26.9903C82.5015 26.6855 82.182 26.4493 81.827 26.2695C81.4666 26.0942 81.0859 26.0059 80.6765 26.0059C79.8552 26.0059 79.1575 26.3335 78.5782 26.9857C77.9975 27.6348 77.7092 28.4166 77.7092 29.3339C77.7092 30.2543 77.9975 31.0376 78.5782 31.6883C79.1575 32.3359 79.8552 32.659 80.6765 32.659C81.0016 32.659 81.3116 32.6087 81.6094 32.4944C81.9073 32.3831 82.1779 32.2262 82.4227 32.025C82.6702 31.8254 82.885 31.5877 83.0686 31.3134C83.2549 31.0376 83.395 30.7404 83.4943 30.4189H82.439C82.3547 30.5865 82.2513 30.742 82.1276 30.8867C82.0024 31.0315 81.8678 31.1549 81.7155 31.254C81.5646 31.3591 81.4027 31.4368 81.2273 31.4947C81.0519 31.5557 80.871 31.5831 80.6833 31.5831C80.4467 31.5831 80.2237 31.542 80.0115 31.4536C79.7994 31.3637 79.6104 31.2448 79.4377 31.094C79.2677 30.9401 79.1195 30.7618 78.9998 30.5545C78.8828 30.3488 78.7958 30.1263 78.7387 29.8856H83.6139C83.6289 29.7896 83.6411 29.6981 83.6479 29.6037C83.6534 29.5107 83.6588 29.4238 83.6588 29.337C83.6588 28.8844 83.5786 28.4547 83.4222 28.0509C83.2549 27.647 83.0401 27.2935 82.7681 26.9903ZM78.7305 28.7945C78.7876 28.5522 78.8747 28.3252 78.9971 28.1179C79.1167 27.9122 79.265 27.7309 79.4349 27.5785C79.6077 27.4291 79.7967 27.3118 80.0088 27.2249C80.2196 27.1365 80.4413 27.0954 80.6738 27.0954C80.9064 27.0954 81.1267 27.1365 81.3388 27.2249C81.5482 27.3148 81.7386 27.4322 81.9113 27.5815C82.08 27.74 82.2255 27.9198 82.3519 28.1225C82.4771 28.3328 82.5627 28.5583 82.6185 28.793L78.7305 28.7945Z" fill="#E5E5E5"></path><path d="M10.9762 11.7715H8.75V32.7213H10.9762V11.7715Z" fill="#E5E5E5"></path><path d="M21.2936 19.0592C20.8244 18.5457 20.2791 18.1434 19.659 17.8477C19.0402 17.5536 18.3834 17.4043 17.6871 17.4043C16.5584 17.4043 15.5453 17.7715 14.6464 18.5015V17.4043H12.4175V32.722H14.6464V23.0258H14.6831C14.7103 22.5976 14.8055 22.1937 14.9687 21.8128C15.1373 21.4318 15.3549 21.1011 15.6255 20.8238C15.8948 20.5388 16.2103 20.3194 16.5611 20.1548C16.912 19.9887 17.2887 19.9049 17.6871 19.9049C18.0788 19.9049 18.45 19.9842 18.7995 20.1442C19.1517 20.3057 19.4618 20.5328 19.7283 20.8131C19.9976 21.0996 20.2165 21.4318 20.3852 21.8128C20.5552 22.1937 20.6504 22.5976 20.6776 23.0258V32.722H22.9064L22.9173 23.0258C22.8847 22.2532 22.7229 21.5324 22.4346 20.8512C22.1463 20.1716 21.7641 19.5712 21.2936 19.0592Z" fill="#E5E5E5"></path><path d="M31.3963 23.8212H26.4327C26.3049 23.8212 26.2042 23.7801 26.1267 23.6856C26.0492 23.5972 26.0098 23.457 26.0098 23.2681C26.0098 22.8109 26.0913 22.3751 26.2477 21.9697C26.4041 21.5598 26.619 21.2017 26.891 20.8909C27.1602 20.583 27.4825 20.3377 27.847 20.164C28.2114 19.9887 28.599 19.8988 29.0138 19.8988C29.3728 19.8988 29.7114 19.9689 30.0337 20.1061C30.356 20.2463 30.6484 20.4337 30.9122 20.6668C31.176 20.9061 31.3963 21.191 31.5799 21.5187C31.7622 21.8448 31.8859 22.1983 31.9566 22.5656H34.2073C34.1311 21.8448 33.9421 21.1697 33.6348 20.5434C33.3288 19.9156 32.9439 19.3685 32.4816 18.9038C32.0205 18.4344 31.4902 18.0717 30.8973 17.8035C30.3057 17.5384 29.6774 17.4043 29.0124 17.4043C28.3039 17.4043 27.6253 17.5597 26.9916 17.8675C26.3552 18.1784 25.8003 18.5975 25.3244 19.1308C24.847 19.6657 24.4717 20.2874 24.197 21.0006C23.9209 21.7153 23.7822 22.4696 23.7822 23.2681C23.7822 24.2738 23.9985 25.0342 24.4336 25.5492C24.8647 26.0628 25.5202 26.3218 26.3905 26.3218H31.4059C31.8125 26.3218 32.0151 26.4879 32.0151 26.8323C32.0151 27.2986 31.9362 27.7405 31.7812 28.1504C31.6234 28.5634 31.4099 28.9261 31.1366 29.2354C30.866 29.5432 30.5478 29.7871 30.1833 29.9669C29.8175 30.1482 29.4272 30.2412 29.0111 30.2412C28.6453 30.2412 28.3026 30.1756 27.9762 30.04C27.6471 29.9074 27.3547 29.72 27.0977 29.4762C26.8379 29.2354 26.6176 28.952 26.4408 28.6274C26.2627 28.3059 26.1389 27.9493 26.0723 27.5561H23.8189C23.8951 28.28 24.0814 28.955 24.3792 29.5844C24.677 30.2092 25.0524 30.7577 25.5107 31.224C25.9703 31.6903 26.498 32.0545 27.0977 32.3212C27.6947 32.5894 28.3338 32.722 29.0097 32.722C29.7237 32.722 30.3982 32.565 31.036 32.2542C31.6724 31.9479 32.2272 31.5273 32.7046 30.997C33.1765 30.4621 33.5518 29.8404 33.8292 29.1272C34.1039 28.4125 34.244 27.6567 34.244 26.8597C34.244 25.8525 34.0046 25.0951 33.5314 24.5831C33.0568 24.0757 32.3442 23.8212 31.3963 23.8212Z" fill="#E5E5E5"></path><path d="M36.2081 11.7715C35.4697 11.7715 35.1025 12.1905 35.1025 13.0256C35.1025 13.8531 35.4711 14.2645 36.2081 14.2645C36.9534 14.2645 37.326 13.8515 37.326 13.0256C37.326 12.1905 36.952 11.7715 36.2081 11.7715Z" fill="#E5E5E5"></path><path d="M37.3273 17.4043H35.1025V32.722H37.3273V17.4043Z" fill="#E5E5E5"></path><path d="M49.2907 19.4014C47.973 18.068 46.4308 17.4021 44.6697 17.4021C42.7876 17.4021 41.1721 18.1533 39.8326 19.6558C38.5012 21.1477 37.8335 22.9519 37.8335 25.0609C37.8335 27.1806 38.5012 28.9879 39.8326 30.4812C41.1666 31.9731 42.7781 32.7213 44.6697 32.7213C46.4322 32.7213 47.9743 32.0538 49.2907 30.722V32.7213H51.5155V11.7715H49.2907V19.4014ZM48.9181 27.0739C48.6706 27.6987 48.3401 28.2503 47.9186 28.7212C47.4984 29.1921 47.0101 29.5623 46.4499 29.8336C45.8882 30.1033 45.2967 30.2405 44.6684 30.2405C44.032 30.2405 43.4363 30.1033 42.8815 29.8336C42.3239 29.5593 41.8371 29.189 41.4182 28.7212C40.9953 28.2503 40.6648 27.6987 40.4241 27.0739C40.1848 26.4476 40.0624 25.7756 40.0624 25.064C40.0624 24.3599 40.1848 23.6986 40.4241 23.0662C40.6662 22.4384 40.9966 21.8913 41.4182 21.4174C41.8384 20.9481 42.3239 20.5793 42.8815 20.3065C43.4363 20.0368 44.0333 19.8997 44.6684 19.8997C45.2967 19.8997 45.8869 20.0368 46.4499 20.3065C47.0101 20.5808 47.4984 20.9496 47.9186 21.4174C48.3415 21.8913 48.672 22.4384 48.9181 23.0662C49.1642 23.6956 49.2894 24.3599 49.2894 25.064C49.2907 25.7756 49.1642 26.4476 48.9181 27.0739Z" fill="#E5E5E5"></path><path d="M64.1551 19.6642C63.5336 18.9647 62.8074 18.4161 61.9779 18.0077C61.1511 17.6054 60.2698 17.4043 59.3397 17.4043C57.4535 17.4043 55.8433 18.1556 54.5025 19.6581C53.1698 21.1499 52.5034 22.9541 52.5034 25.0631C52.5034 27.1828 53.1684 28.9901 54.5025 30.4834C55.8338 31.9753 57.444 32.7235 59.3397 32.7235C60.0835 32.7235 60.8002 32.594 61.4829 32.3364C62.1642 32.0804 62.7911 31.7239 63.3541 31.2606C63.9171 30.8019 64.4135 30.2518 64.8351 29.6225C65.2607 28.9901 65.5884 28.3028 65.8183 27.5592H63.3867C63.1896 27.9523 62.9502 28.3089 62.6674 28.6381C62.3831 28.9657 62.0676 29.2461 61.7195 29.4853C61.37 29.723 60.9974 29.9105 60.5921 30.0431C60.191 30.1787 59.7708 30.2442 59.341 30.2442C58.7971 30.2442 58.2817 30.1436 57.7948 29.944C57.3039 29.7429 56.8619 29.467 56.4689 29.1166C56.0759 28.7661 55.7386 28.3501 55.4639 27.8761C55.1892 27.4022 54.9852 26.8841 54.8588 26.3249H66.0848C66.1188 26.1024 66.1446 25.8891 66.1623 25.6772C66.1786 25.4685 66.1882 25.2643 66.1882 25.0677C66.1882 24.0193 66.0032 23.0364 65.6428 22.1084C65.2757 21.1773 64.7793 20.3636 64.1551 19.6642ZM54.8574 23.8212C54.9852 23.2604 55.1906 22.7408 55.468 22.2638C55.7482 21.7823 56.0854 21.3693 56.4811 21.0234C56.8755 20.6745 57.3175 20.4017 57.8057 20.2021C58.2912 20.0025 58.8039 19.9049 59.3397 19.9049C59.8755 19.9049 60.3827 20.0025 60.8655 20.2021C61.3496 20.4017 61.7889 20.679 62.1832 21.0295C62.579 21.3815 62.9162 21.7975 63.2018 22.276C63.4847 22.7576 63.6914 23.2726 63.8178 23.8242L54.8574 23.8212Z" fill="#E5E5E5"></path><path d="M96.5308 19.0314C96.0589 18.5224 95.515 18.1171 94.8948 17.8245C94.2774 17.535 93.6192 17.3826 92.923 17.3826C91.8201 17.3826 90.8206 17.7361 89.9217 18.4402V11.7505H87.6914V32.6972H89.9217V23.0025C89.9475 22.5759 90.044 22.1705 90.2059 21.7896C90.3704 21.4101 90.588 21.0795 90.8586 20.8006C91.132 20.5172 91.4434 20.2977 91.7956 20.1316C92.1465 19.967 92.5232 19.8817 92.9189 19.8817C93.3092 19.8817 93.6818 19.967 94.0286 20.1316C94.3726 20.2977 94.6813 20.5202 94.9519 20.8006C95.2171 21.0825 95.4334 21.4101 95.6061 21.7896C95.7733 22.1705 95.8767 22.5759 95.9107 23.0025V32.6972H98.1382V23.0025C98.1056 22.2315 97.9437 21.5077 97.6609 20.8189C97.3767 20.1377 97.0013 19.5388 96.5308 19.0314Z" fill="#E5E5E5"></path><path d="M110.191 19.6482C109.569 18.9472 108.845 18.3956 108.013 17.9917C107.187 17.5894 106.305 17.3853 105.375 17.3853C103.488 17.3853 101.878 18.138 100.539 19.639C99.206 21.1324 98.5383 22.9305 98.5383 25.0456C98.5383 27.1668 99.2033 28.9695 100.539 30.4659C101.87 31.9578 103.479 32.7029 105.375 32.7029C106.309 32.7029 107.19 32.5033 108.022 32.0964C108.852 31.6941 109.581 31.1471 110.204 30.4522C110.828 29.7619 111.317 28.9482 111.68 28.0202C112.039 27.0967 112.22 26.1001 112.22 25.0487C112.22 24.0003 112.035 23.0143 111.674 22.0909C111.309 21.1583 110.816 20.3461 110.191 19.6482ZM109.624 27.0571C109.378 27.6819 109.048 28.232 108.627 28.7028C108.206 29.1722 107.719 29.544 107.159 29.8137C106.598 30.0865 106.004 30.2206 105.375 30.2206C104.738 30.2206 104.141 30.0865 103.586 29.8137C103.031 29.5425 102.545 29.1707 102.123 28.7028C101.706 28.2289 101.374 27.6819 101.132 27.0571C100.888 26.4277 100.77 25.7557 100.77 25.0456C100.77 24.3401 100.888 23.6772 101.132 23.0479C101.374 22.42 101.706 21.873 102.123 21.3991C102.547 20.9282 103.031 20.5579 103.586 20.2882C104.141 20.0169 104.741 19.8798 105.375 19.8798C106.004 19.8798 106.594 20.0154 107.159 20.2882C107.719 20.5594 108.207 20.9297 108.627 21.3991C109.05 21.873 109.382 22.42 109.624 23.0479C109.873 23.6742 109.993 24.3401 109.993 25.0456C109.991 25.7557 109.872 26.4277 109.624 27.0571Z" fill="#E5E5E5"></path><path d="M117.751 29.3078C117.485 29.0213 117.267 28.6891 117.101 28.3097C116.937 27.9287 116.84 27.5173 116.814 27.083V19.8783H119.79V17.3807H116.814V14.2446H114.584V17.3822H112.448V19.8798H114.584V27.0845C114.611 27.8632 114.768 28.5901 115.051 29.2712C115.336 29.9539 115.713 30.5467 116.183 31.0557C116.655 31.5662 117.201 31.9624 117.819 32.2534C118.438 32.5429 119.096 32.6923 119.803 32.7014V30.2206C119.405 30.2206 119.028 30.1398 118.677 29.9798C118.325 29.8153 118.019 29.5928 117.751 29.3078Z" fill="#E5E5E5"></path><path d="M131.935 19.6482C131.309 18.9472 130.584 18.3956 129.756 17.9917C128.931 17.5894 128.048 17.3853 127.115 17.3853C125.233 17.3853 123.622 18.138 122.279 19.639C120.948 21.1324 120.282 22.9305 120.282 25.0456C120.282 27.1668 120.945 28.9695 122.279 30.4659C123.611 31.9578 125.222 32.7029 127.115 32.7029C127.863 32.7029 128.574 32.5764 129.263 32.3189C129.945 32.0614 130.567 31.7033 131.13 31.2431C131.695 30.7798 132.189 30.2343 132.615 29.6034C133.04 28.9726 133.365 28.2838 133.595 27.5401H131.165C130.971 27.9318 130.73 28.2883 130.448 28.6205C130.161 28.9451 129.849 29.227 129.499 29.4663C129.15 29.7055 128.776 29.8884 128.373 30.021C127.972 30.1581 127.552 30.2221 127.118 30.2221C126.579 30.2221 126.063 30.1246 125.572 29.9234C125.086 29.7238 124.642 29.448 124.249 29.096C123.853 28.7455 123.518 28.331 123.245 27.8571C122.966 27.3801 122.764 26.8666 122.64 26.3013H133.866C133.896 26.0833 133.923 25.8715 133.939 25.6612C133.958 25.4525 133.966 25.2483 133.966 25.0502C133.966 24.0018 133.786 23.0158 133.421 22.0924C133.05 21.1583 132.558 20.3461 131.935 19.6482ZM122.636 23.8037C122.764 23.2414 122.968 22.7218 123.246 22.2433C123.528 21.7633 123.862 21.3488 124.258 21.0059C124.654 20.6569 125.092 20.3842 125.584 20.1846C126.069 19.9819 126.582 19.8844 127.115 19.8844C127.651 19.8844 128.161 19.9819 128.645 20.1846C129.127 20.3842 129.566 20.66 129.962 21.012C130.356 21.3625 130.695 21.78 130.977 22.257C131.264 22.7339 131.47 23.252 131.595 23.8067L122.636 23.8037Z" fill="#E5E5E5"></path><path d="M138.872 29.9771C138.516 29.8171 138.203 29.5931 137.936 29.3097C137.67 29.0232 137.452 28.691 137.288 28.3116C137.12 27.9306 137.028 27.5192 136.999 27.0849V11.752H134.771V27.0849C134.799 27.8635 134.951 28.5904 135.236 29.2716C135.521 29.9543 135.898 30.547 136.368 31.056C136.839 31.5665 137.388 31.9627 138.01 32.2537C138.634 32.5433 139.298 32.6926 140.001 32.7017V30.2209C139.608 30.2179 139.227 30.1386 138.872 29.9771Z" fill="#E5E5E5"></path><path d="M70.5949 9.21505C70.5949 9.21505 70.8655 9.21505 71.3306 9.21505C71.8093 1.60955 65.5238 2.16728 65.5659 2.16728C57.5588 1.43736 57.5996 6.76928 57.5996 6.76928L54.344 17.2716L57.8417 11.9854C58.1259 15.4491 61.4998 15.8499 61.4998 15.8499L65.2001 15.8361C65.2654 15.8392 65.3252 15.8361 65.3864 15.8392L65.4721 12.1302C65.4721 12.1302 65.7686 9.06114 70.5949 9.21505Z" fill="#E5E5E5"></path><path d="M83.6983 9.84267C82.3887 9.30322 73.9233 9.22856 71.3272 9.21484C71.3191 9.35351 71.3095 9.49523 71.2959 9.63999C71.2959 9.63999 71.228 16.0371 65.3831 15.8375L65.3328 17.8078C65.5626 21.2791 70.2175 20.9576 70.2175 20.9576C73.6962 21.1161 82.3139 20.4821 82.3139 20.4821L85.7708 22.966L84.3674 19.3682C85.4743 18.9156 85.9421 17.5183 85.9952 17.4085C86.5636 16.1102 86.5446 12.4881 86.5446 12.4881C86.667 10.5726 83.6983 9.84267 83.6983 9.84267Z" fill="#E5E5E5"></path></svg>